<?xml version="1.0" encoding="UTF-8"?>
<svg width="800" height="600" viewBox="0 0 800 600" xmlns="http://www.w3.org/2000/svg">
  <!-- Sky Gradient -->
  <defs>
    <linearGradient id="skyGradient" x1="0%" y1="0%" x2="0%" y2="100%">
      <stop offset="0%" style="stop-color:#87CEEB;stop-opacity:1" />
      <stop offset="100%" style="stop-color:#1E90FF;stop-opacity:1" />
    </linearGradient>
    
    <!-- Sun -->
    <radialGradient id="sunGradient" cx="150" cy="150" r="50%" fx="150" fy="150">
      <stop offset="0%" style="stop-color:#FFD700;stop-opacity:1" />
      <stop offset="100%" style="stop-color:#FFA500;stop-opacity:1" />
    </radialGradient>
    
    <!-- Cloud -->
    <filter id="cloudFilter" x="-20%" y="-20%" width="140%" height="140%">
      <feGaussianBlur in="SourceAlpha" stdDeviation="3" />
      <feComponentTransfer>
        <feFuncA type="table" tableValues="0 0.5" />
      </feComponentTransfer>
      <feMerge>
        <feMergeNode />
        <feMergeNode in="SourceGraphic" />
      </feMerge>
    </filter>
  </defs>
  
  <!-- Sky -->
  <rect width="100%" height="100%" fill="url(#skyGradient)" />
  
  <!-- Sun -->
  <circle cx="150" cy="150" r="60" fill="url(#sunGradient)" />
  
  <!-- Clouds -->
  <g fill="#FFFFFF" filter="url(#cloudFilter)">
    <ellipse cx="300" cy="100" rx="60" ry="30" />
    <ellipse cx="500" cy="80" rx="80" ry="40" />
    <ellipse cx="700" cy="120" rx="70" ry="35" />
    <ellipse cx="200" cy="200" rx="50" ry="25" />
    <ellipse cx="600" cy="180" rx="90" ry="45" />
  </g>
  
  <!-- Distant Mountains -->
  <path d="M-10,300 Q200,150 400,300 T800,250 L800,600 L-10,600 Z" fill="#2E8B57" />
  <path d="M-10,350 Q200,200 400,350 T800,300 L800,600 L-10,600 Z" fill="#3CB371" />
  
  <!-- Road -->
  <path d="M0,450 Q400,400 800,450 L800,600 L0,600 Z" fill="#696969" />
  
  <!-- Road Markings -->
  <path d="M150,520 L250,520" stroke="white" stroke-width="8" stroke-dasharray="20,40" />
  <path d="M350,520 L450,520" stroke="white" stroke-width="8" stroke-dasharray="20,40" />
  <path d="M550,520 L650,520" stroke="white" stroke-width="8" stroke-dasharray="20,40" />
  
  <!-- Sidewalk -->
  <path d="M0,440 Q400,390 800,440 L800,450 L0,450 Z" fill="#A9A9A9" />
  
  <!-- Grass -->
  <path d="M0,450 Q400,400 800,450 L800,460 L0,460 Z" fill="#7CFC00" />
</svg>
